<svg width="46" height="47" viewBox="0 0 46 47" fill="none" xmlns="http://www.w3.org/2000/svg">
<path d="M11.4971 5.84607V29.2304" stroke="#0074B9" stroke-width="3" stroke-linecap="round" stroke-linejoin="round"/>
<path d="M34.4918 17.5382C37.6667 17.5382 40.2405 14.9208 40.2405 11.6921C40.2405 8.46345 37.6667 5.84607 34.4918 5.84607C31.3169 5.84607 28.7432 8.46345 28.7432 11.6921C28.7432 14.9208 31.3169 17.5382 34.4918 17.5382Z" stroke="#0074B9" stroke-width="3" stroke-linecap="round" stroke-linejoin="round"/>
<path d="M11.4977 40.9225C14.6726 40.9225 17.2463 38.3051 17.2463 35.0764C17.2463 31.8477 14.6726 29.2303 11.4977 29.2303C8.32278 29.2303 5.74902 31.8477 5.74902 35.0764C5.74902 38.3051 8.32278 40.9225 11.4977 40.9225Z" stroke="#0074B9" stroke-width="3" stroke-linecap="round" stroke-linejoin="round"/>
<path d="M34.492 17.5382C34.492 22.1896 32.675 26.6506 29.4408 29.9396C26.2066 33.2287 21.82 35.0764 17.2461 35.0764" stroke="#0074B9" stroke-width="3" stroke-linecap="round" stroke-linejoin="round"/>
</svg>
