<svg width="46" height="45" viewBox="0 0 46 45" fill="none" xmlns="http://www.w3.org/2000/svg">
<path d="M44.4893 31.6729L38.7471 28.8018C38.284 28.5702 37.7738 28.7547 37.5422 29.2179C37.3106 29.681 37.4952 30.1912 37.9583 30.4228L42.0796 32.507L23 42.0938L3.9185 32.507L8.03984 30.4228C8.50299 30.1912 8.68751 29.6358 8.45595 29.2179C8.22437 28.7547 7.66896 28.5702 7.25101 28.8018L1.51021 31.6729C1.18636 31.8122 1 32.1361 1 32.507C1 32.8779 1.18454 33.1547 1.51021 33.341L22.5837 43.9463C22.723 43.9934 22.8624 44.0386 22.9999 44.0386C23.1392 44.0386 23.2785 43.9916 23.416 43.9463L44.4895 33.341C44.8133 33.2017 44.9997 32.8779 44.9997 32.507C44.9997 32.1361 44.815 31.8575 44.4893 31.6729Z" fill="#0074B9" stroke="#0074B9"/>
<path d="M1.51051 23.3362L22.584 33.9415C22.7233 33.9885 22.8626 34.0337 23.0001 34.0337C23.1395 34.0337 23.2788 33.9867 23.4163 33.9415L44.4898 23.3362C44.8136 23.1968 45 22.873 45 22.5021C45 22.1783 44.8155 21.8544 44.4898 21.6681L38.7944 18.7969C38.3312 18.5653 37.821 18.7498 37.5894 19.213C37.3579 19.6761 37.5424 20.1863 38.0056 20.4179L42.1269 22.5021L23 32.089L3.9185 22.5021L8.03984 20.4179C8.50299 20.1863 8.68751 19.6309 8.45595 19.213C8.22438 18.7498 7.66896 18.5653 7.25101 18.7969L1.51021 21.6681C1.18636 21.8074 1 22.1312 1 22.5021C1 22.8259 1.18484 23.1498 1.51051 23.3362Z" fill="#0074B9" stroke="#0074B9"/>
<path d="M1.51017 13.3311L22.5837 23.9364C22.723 23.9835 22.8623 24.0287 22.9998 24.0287C23.1391 24.0287 23.2784 23.9816 23.4159 23.9364L44.4895 13.3311C44.8133 13.1918 44.9997 12.868 44.9997 12.4971C44.9997 12.1262 44.8151 11.8494 44.4895 11.663L23.4159 1.10448C23.1373 0.965173 22.8605 0.965173 22.5819 1.10448L1.51021 11.7098C1.18636 11.8491 1 12.1729 1 12.5438C1 12.9147 1.1845 13.1466 1.51017 13.3311ZM22.9996 2.91013L42.0811 12.497L22.9996 22.0857L3.91811 12.497L22.9996 2.91013Z" fill="#0074B9" stroke="#0074B9"/>
</svg>
